<?xml version="1.0" encoding="UTF-8"?>
<svg width="20px" height="22px" viewBox="0 0 20 22" version="1.1" xmlns="http://www.w3.org/2000/svg" xmlns:xlink="http://www.w3.org/1999/xlink">
    <!-- Generator: Sketch 57.1 (83088) - https://sketch.com -->
    <title>Cart Icon</title>
    <desc>Created with Sketch.</desc>
    <g id="Page-1" stroke="none" stroke-width="1" fill="none" fill-rule="evenodd">
        <g id="Homepage" transform="translate(-1368.000000, -15.000000)" fill="#491707">
            <g id="Cart-Icon" transform="translate(1368.000000, 15.000000)">
                <g id="Group">
                    <path d="M8.08290155,16.7875648 C6.68393782,16.7875648 5.59585492,17.8756477 5.59585492,19.2746114 C5.59585492,20.6217617 6.68393782,21.7098446 8.08290155,21.7098446 C9.43005181,21.7098446 10.5699482,20.6217617 10.5699482,19.2746114 C10.5699482,17.8756477 9.43005181,16.7875648 8.08290155,16.7875648 Z M8.08290155,20.2072539 C7.56476684,20.2072539 7.0984456,19.7927461 7.0984456,19.2746114 C7.0984456,18.7046632 7.56476684,18.2901554 8.08290155,18.2901554 C8.60103627,18.2901554 9.01554404,18.7046632 9.01554404,19.2746114 C9.01554404,19.7927461 8.60103627,20.2072539 8.08290155,20.2072539 Z" id="Shape"></path>
                    <path d="M15.6476684,16.7875648 C14.3005181,16.7875648 13.2124352,17.8756477 13.2124352,19.2746114 C13.2124352,20.6217617 14.3005181,21.7098446 15.6476684,21.7098446 C17.0466321,21.7098446 18.134715,20.6217617 18.134715,19.2746114 C18.134715,17.8756477 17.0466321,16.7875648 15.6476684,16.7875648 Z M15.6476684,20.2072539 C15.1295337,20.2072539 14.7150259,19.7927461 14.7150259,19.2746114 C14.7150259,18.7046632 15.1295337,18.2901554 15.6476684,18.2901554 C16.2176166,18.2901554 16.6321244,18.7046632 16.6321244,19.2746114 C16.6321244,19.7927461 16.2176166,20.2072539 15.6476684,20.2072539 Z" id="Shape"></path>
                    <path d="M5.90673575,16.0103627 L17.7202073,16.0103627 C18.7046632,16.0103627 18.7046632,14.507772 17.7202073,14.507772 L6.58031088,14.507772 L6.32124352,13.1088083 L17.1502591,13.1088083 C17.4611399,13.1088083 17.7720207,12.8497409 17.8756477,12.5388601 L19.8963731,6.21761658 C20.1036269,5.69948187 19.6891192,5.18134715 19.2227979,5.18134715 L5.07772021,5.18134715 L4.40414508,1.19170984 C4.35233161,0.880829016 4.09326425,0.621761658 3.78238342,0.569948187 L0.880829016,0.0518134715 C-0.103626943,-0.103626943 -0.362694301,1.39896373 0.621761658,1.55440415 L3.00518135,1.96891192 L5.18134715,15.388601 C5.23316062,15.7512953 5.54404145,16.0103627 5.90673575,16.0103627 Z M6.11398964,11.5544041 L5.28497409,6.7357513 L18.134715,6.7357513 L16.5803109,11.5544041 L6.11398964,11.5544041 Z" id="Shape"></path>
                </g>
            </g>
        </g>
    </g>
</svg>